<svg xmlns="http://www.w3.org/2000/svg" xmlns:xlink="http://www.w3.org/1999/xlink" version="1.1" x="0px" y="0px" viewBox="0 0 100 125" xml:space="preserve"><polygon points="63.7617188,75.4526367 71.0263672,68.1801758 63.7617188,68.1801758 "/><circle cx="45.3286133" cy="53.0825195" r="1.1918945"/><path d="M50,2.7998047C23.9736328,2.7998047,2.7998047,23.9736328,2.7998047,50S23.9736328,97.2001953,50,97.2001953  S97.2001953,76.0263672,97.2001953,50S76.0263672,2.7998047,50,2.7998047z M25.9023438,35.328125  c0-0.4960938,0.4038086-0.8999023,0.8999023-0.8999023s0.8999023,0.4038086,0.8999023,0.8999023v2.2675781  c0,0.4960938-0.4038086,0.8999023-0.8999023,0.8999023s-0.8999023-0.4038086-0.8999023-0.8999023V35.328125z M25.9023438,40.996582  c0-0.4960938,0.4038086-0.8999023,0.8999023-0.8999023s0.8999023,0.4038086,0.8999023,0.8999023v2.2670898  c0,0.4960938-0.4038086,0.8999023-0.8999023,0.8999023s-0.8999023-0.4038086-0.8999023-0.8999023V40.996582z M50.5595703,68.1801758  h-8.2753906c-0.4960938,0-0.8999023-0.4038086-0.8999023-0.8999023s0.4038086-0.8999023,0.8999023-0.8999023h8.2753906  c0.4960938,0,0.8999023,0.4038086,0.8999023,0.8999023S51.0556641,68.1801758,50.5595703,68.1801758z M47.3217773,71.5576172  c0,0.4960938-0.4038086,0.8999023-0.8999023,0.8999023h-4.1376953c-0.4960938,0-0.8999023-0.4038086-0.8999023-0.8999023  s0.4038086-0.8999023,0.8999023-0.8999023h4.1376953C46.9179688,70.6577148,47.3217773,71.0615234,47.3217773,71.5576172z   M54.081543,78.5268555h-1.9453125c-0.4960938,0-0.8999023-0.4038086-0.8999023-0.8999023s0.4038086-0.8999023,0.8999023-0.8999023  h1.9453125c0.4960938,0,0.8999023,0.4038086,0.8999023,0.8999023S54.5776367,78.5268555,54.081543,78.5268555z   M58.9443359,78.5268555h-1.9453125c-0.4960938,0-0.8999023-0.4038086-0.8999023-0.8999023s0.4038086-0.8999023,0.8999023-0.8999023  h1.9453125c0.4960938,0,0.8999023,0.4038086,0.8999023,0.8999023S59.4404297,78.5268555,58.9443359,78.5268555z   M58.1621094,59.3178711c-1.6499023,0-2.9916992-1.3417969-2.9916992-2.9916992s1.3417969-2.9916992,2.9916992-2.9916992  c0.4130859,0,0.8173828,0.0849609,1.1918945,0.2485352v-7.3115234l-11.0336914-2.7885742v9.5996094  c0,1.6499023-1.3417969,2.9916992-2.9916992,2.9916992s-2.9916992-1.3417969-2.9916992-2.9916992  s1.3417969-2.9916992,2.9916992-2.9916992c0.4130859,0,0.8173828,0.0849609,1.1918945,0.2485352v-8.012207  c0-0.2792969,0.1264648-0.5385742,0.3476563-0.7109375c0.1572266-0.121582,0.3540039-0.1884766,0.5532227-0.1884766  c0.0737305,0,0.1469727,0.0087891,0.2197266,0.0268555l12.8334961,3.2436523  c0.3999023,0.1010742,0.6791992,0.4599609,0.6791992,0.8725586v10.7553711  C61.1538086,57.9760742,59.8120117,59.3178711,58.1621094,59.3178711z M46.5458984,37.1245117  c0.0981445-0.4047852,0.4580078-0.6879883,0.8745117-0.6879883c0.0712891,0,0.1425781,0.0083008,0.2119141,0.0253906  l12.8330078,3.105957c0.2338867,0.0561523,0.4316406,0.2001953,0.5566406,0.4052734  c0.1254883,0.2050781,0.1630859,0.4472656,0.1064453,0.6806641c-0.0976563,0.4057617-0.4570313,0.6884766-0.8740234,0.6884766  c-0.0722656,0-0.1445313-0.0083008-0.2124023-0.0253906l-12.8330078-3.105957  c-0.2338867-0.0561523-0.4316406-0.2001953-0.5566406-0.4052734C46.5268555,37.6005859,46.4892578,37.3583984,46.5458984,37.1245117  z M74.0976563,67.2802734l-0.0063477,0.0722656l-0.0336914,0.15625c-0.0454102,0.1694336-0.1186523,0.3032227-0.2231445,0.4072266  L63.5004883,78.2607422c-0.0834961,0.0839844-0.1821289,0.1503906-0.2978516,0.1992188  c-0.109375,0.0444336-0.2236328,0.0668945-0.3408203,0.0668945h-1c-0.4960938,0-0.8999023-0.4038086-0.8999023-0.8999023  s0.4038086-0.8999023,0.8999023-0.8999023h0.1000977v-9.4467773c0-0.4960938,0.4038086-0.8999023,0.8999023-0.8999023h9.4360352  V46.5722656c0-0.4960938,0.4038086-0.8999023,0.8999023-0.8999023s0.8999023,0.4038086,0.8999023,0.8999023V67.2802734z   M74.7475586,41.7011719c0,0.8544922-0.6953125,1.5498047-1.5498047,1.5498047s-1.5498047-0.6953125-1.5498047-1.5498047V35.019043  c0-0.4960938,0.2397461-0.9482422,0.6499023-1.2397461V28.940918H33.3774414v47.7861328h15.8408203  c0.4960938,0,0.8999023,0.4038086,0.8999023,0.8999023s-0.4038086,0.8999023-0.8999023,0.8999023H32.4775391  c-0.4960938,0-0.8999023-0.4038086-0.8999023-0.8999023v-4.7705078h-4.7753906  c-0.4960938,0-0.8999023-0.4038086-0.8999023-0.8999023V46.6650391c0-0.4960938,0.4038086-0.8999023,0.8999023-0.8999023  s0.8999023,0.4038086,0.8999023,0.8999023v24.3916016h3.8754883v-43.015625c0-0.4960938,0.4038086-0.8999023,0.8999023-0.8999023  h34.1518555v-3.8681641H27.7021484v8.6547852c0,0.4960938-0.4038086,0.8999023-0.8999023,0.8999023  s-0.8999023-0.4038086-0.8999023-0.8999023v-9.5546875c0-0.4960938,0.4038086-0.8999023,0.8999023-0.8999023h40.7270508  c0.4960938,0,0.8999023,0.4038086,0.8999023,0.8999023v4.7680664h4.7685547c0.4960938,0,0.8999023,0.4038086,0.8999023,0.8999023  v5.7382813c0.4101563,0.2915039,0.6499023,0.7436523,0.6499023,1.2397461V41.7011719z"/><circle cx="58.1621094" cy="56.3261719" r="1.1918945"/></svg>