<svg xmlns:dc="http://purl.org/dc/elements/1.1/" xmlns:cc="http://creativecommons.org/ns#" xmlns:rdf="http://www.w3.org/1999/02/22-rdf-syntax-ns#" xmlns:svg="http://www.w3.org/2000/svg" xmlns="http://www.w3.org/2000/svg" xmlns:sodipodi="http://sodipodi.sourceforge.net/DTD/sodipodi-0.dtd" xmlns:inkscape="http://www.inkscape.org/namespaces/inkscape" version="1.1" x="0px" y="0px" viewBox="0 0 100 125"><g transform="translate(0,-952.36218)"><path style="text-indent:0;text-transform:none;direction:ltr;block-progression:tb;baseline-shift:baseline;color:#000000;enable-background:accumulate;" d="m 57.00019,954.36219 c -11.56245,0 -21,9.4315 -21,20.98668 0,3.74122 0.98798,7.25866 2.71875,10.30597 l -16.593749,52.31056 c -0.0876,0.2932 -0.12989,0.5998 -0.125,0.9057 0,2.4837 0.72614,4.8207 2.15625,6.5896 1.43011,1.7689 3.32183,2.9198 5.5,3.9974 2.479809,0.8452 5.378569,1.0492 7.562499,0.812 2.59505,-0.3021 5.50501,-1.1424 7.28125,-3.7788 0.13022,-0.2049 0.23541,-0.4257 0.3125,-0.6559 l 18.65625,-50.53043 c 8.41114,-2.73984 14.53125,-10.65872 14.53125,-19.9561 0,-11.55518 -9.43755,-20.98668 -21,-20.98668 z m 0,5.9962 c 8.3198,0 14.91161,7.07385 14.91161,15.38837 -4.3806,1.42485 -11.47498,-0.31208 -15.44281,-1.80325 -4.90451,-1.90054 -8.99456,-4.97079 -10.96875,-8.27601 2.74507,-3.26031 6.87636,-5.30911 11.5,-5.30911 z m -3,2.9981 c -0.55228,0 -1,0.4474 -1,0.9994 0,0.5519 0.44772,0.99931 1,0.99931 0.55228,0 1,-0.44741 1,-0.99931 0,-0.552 -0.44772,-0.9994 -1,-0.9994 z m -4,1.99871 c -1.10457,0 -2,0.89486 -2,1.99873 0,1.10387 0.89543,1.99873 2,1.99873 1.10457,0 2,-0.89486 2,-1.99873 0,-1.10387 -0.89543,-1.99873 -2,-1.99873 z m 4,0.99937 c -0.55228,0 -1,0.44743 -1,0.99936 0,0.55193 0.44772,0.99937 1,0.99937 0.55228,0 1,-0.44744 1,-0.99937 0,-0.55193 -0.44772,-0.99936 -1,-0.99936 z m -11.53125,5.37159 c 3.00568,3.45067 7.24417,6.03728 11.8125,7.80755 5.18588,2.00959 10.87662,2.99166 16.15625,2.49842 -2.44315,4.94443 -7.51772,8.30723 -13.4375,8.30723 -8.3198,0 -15,-6.67596 -15,-14.99049 0,-1.25408 0.18219,-2.46028 0.46875,-3.62271 z m -1.8125,27.82611 c 2.07329,1.52613 4.44783,2.55533 6.8125,3.18553 2.20928,0.5887 4.44939,0.8492 6.5625,0.9056 l -14.625,39.5375 c -0.29445,0.3433 -1.3015,0.9411 -2.875,1.1243 -1.58693,0.1847 -3.4284,-0.053 -4.40625,-0.3436 -1.635079,-0.8375 -2.745049,-1.6166 -3.281249,-2.2798 -0.50676,-0.6268 -0.7601,-1.28 -0.8125,-2.4359 z" fill="#000000" fill-opacity="1" stroke="none" marker="none" visibility="visible" display="inline" overflow="visible"/></g></svg>